# xmcd
#
# Track frame offsets:
#	150
#	19921
#	38313
#	56558
#	75286
#	93662
#	115606
#	138921
#	157350
#	177944
#	202182
#
# Disc length: 3002 seconds
#
# Revision: 1
# Processed by: cddbd v1.5.2PL0 Copyright (c) Steve Scherf et al.
# Submitted via: EZCDAudioConverter 3.0.7.1
#
DISCID=8a0bb80b
DTITLE=Rory Block - I Belong To The Band (A Tribute To Rev  Gary Davis)
DYEAR=2012
DGENRE=Blues
TTITLE0=Samson and Delilah
TTITLE1=Goin' To Sit Down On The Banks Of The River
TTITLE2=Let Us Get Together Right Down Here
TTITLE3=I Belong To The Band
TTITLE4=Lord, I Feel Just Like Goin' On
TTITLE5=Lo, I Be With You Always
TTITLE6=Pure Religion
TTITLE7=Twelve Gates To The City
TTITLE8=Great Change Since I've Been Born
TTITLE9=I Am The Light Of This World
TTITLE10=Death Don't Have No Mercy
EXTD=
EXTT0=
EXTT1=
EXTT2=
EXTT3=
EXTT4=
EXTT5=
EXTT6=
EXTT7=
EXTT8=
EXTT9=
EXTT10=
PLAYORDER=
